#!OML:ASF F:\VICON\USERDATA\INSTALL\rory7\rory7.ASF
:FULLY-SPECIFIED
:DEGREES
586
root -0.0342142 18.8264 4.14827 -3.71338 -4.76832 0.368009
lowerback 5.77468 1.80082 -1.21659
upperback -0.0264689 2.26385 -1.59553
thorax -3.24656 1.133 -1.15407
lowerneck -6.92211 -5.39938 -6.2487
upperneck 7.58497 -7.36773 8.29087
head 3.93525 -3.44247 3.12034
rclavicle 1.58779e-014 -1.55052e-014
rhumerus 24.4725 12.3159 -51.9765
rradius 128.534
rwrist 2.87392
rhand -40.3707 8.58484
rfingers 7.12502
rthumb -13.3251 -20.9691
lclavicle 1.58779e-014 -1.55052e-014
lhumerus -34.6172 16.1476 69.6537
lradius 20.8173
lwrist -11.3294
lhand -24.9671 19.7019
lfingers 7.12502
lthumb 1.54335 49.6761
rfemur 0 0 0
rtibia 0
rfoot 0 0
rtoes 0
lfemur 7.14933 -9.96114 -19.2719
ltibia 10.33
lfoot -13.2446 21.2166
ltoes -4.60951
587
root -0.0350862 18.825 4.14908 -3.74111 -4.72749 0.41092
lowerback 5.79656 1.79125 -1.24348
upperback -0.0286711 2.24776 -1.62395
thorax -3.26119 1.12519 -1.16782
lowerneck -6.86374 -5.44595 -6.09763
upperneck 7.24556 -7.40956 8.1086
head 3.81349 -3.47284 3.04176
rclavicle -8.10048e-015 2.62396e-014
rhumerus 24.9781 11.7827 -51.7442
rradius 128.284
rwrist 3.46178
rhand -40.5871 8.10228
rfingers 7.12502
rthumb -13.5336 -21.4379
lclavicle -8.10048e-015 2.62396e-014
lhumerus -34.6253 16.3057 69.5255
lradius 20.7712
lwrist -11.4065
lhand -25.1723 19.4675
lfingers 7.12502
lthumb 1.34512 49.443
rfemur 0 0 0
rtibia 0
rfoot 0 0
rtoes 0
lfemur 7.18099 -9.94969 -19.3134
ltibia 10.3083
lfoot -13.2273 21.168
ltoes -4.57788
588
root -0.0341953 18.8254 4.1498 -3.68944 -4.70521 0.525337
lowerback 5.73625 1.77829 -1.31173
upperback -0.0583533 2.22496 -1.67811
thorax -3.25873 1.11457 -1.18206
lowerneck -6.78081 -5.46099 -6.01467
upperneck 6.84915 -7.41017 8.0345
head 3.67426 -3.48106 3.01151
rclavicle 3.70982e-014 -3.4191e-014
rhumerus 25.5007 11.2719 -51.5276
rradius 128.001
rwrist 4.05974
rhand -40.833 7.96412
rfingers 7.12502
rthumb -13.7707 -21.5601
lclavicle 3.70982e-014 -3.4191e-014
lhumerus -34.6425 16.4565 69.403
lradius 20.7279
lwrist -11.4715
lhand -25.3719 19.4852
lfingers 7.12502
lthumb 1.15237 49.4618
rfemur 0 0 0
rtibia 0
rfoot 0 0
rtoes 0
lfemur 7.12327 -9.95012 -19.4362
ltibia 10.3028
lfoot -13.2767 21.1383
ltoes -4.40281
589
root -0.0335319 18.8248 4.1519 -3.69072 -4.71604 0.555521
lowerback 5.72826 1.7692 -1.29437
upperback -0.0708657 2.2132 -1.70157
thorax -3.2657 1.10828 -1.21496
lowerneck -6.81598 -5.48996 -5.92323
upperneck 6.52519 -7.42555 7.91267
head 3.57541 -3.49467 2.96094
rclavicle -1.32192e-014 1.19271e-014
rhumerus 26.0253 10.8783 -51.3388
rradius 127.735
rwrist 4.68451
rhand -41.0657 7.85527
rfingers 7.12502
rthumb -13.9949 -21.6536
lclavicle -1.32192e-014 1.19271e-014
lhumerus -34.6683 16.307 69.4558
lradius 20.8093
lwrist -11.0705
lhand -25.0514 20.1721
lfingers 7.12502
lthumb 1.46189 50.1468
rfemur 0 0 0
rtibia 0
rfoot 0 0
rtoes 0
lfemur 7.14406 -9.95788 -19.4808
ltibia 10.2873
lfoot -13.3 21.1742
ltoes -4.43522
590
root -0.0339294 18.8241 4.15361 -3.71414 -4.74118 0.499434
lowerback 5.77055 1.77292 -1.19933
upperback -0.100081 2.22286 -1.70578
thorax -3.31571 1.11149 -1.27554
lowerneck -6.89469 -5.51549 -5.84325
upperneck 6.32723 -7.44512 7.83199
head 3.52404 -3.50633 2.92228
rclavicle 4.31114e-015 -7.15625e-015
rhumerus 26.5129 10.4748 -51.1074
rradius 127.5
rwrist 5.25963
rhand -41.469 7.96676
rfingers 7.12502
rthumb -14.3835 -21.5149
lclavicle 4.31114e-015 -7.15625e-015
lhumerus -34.7155 16.0317 69.5632
lradius 20.8763
lwrist -10.3718
lhand -24.5136 21.3409
lfingers 7.12502
lthumb 1.98129 51.3115
rfemur 0 0 0
rtibia 0
rfoot 0 0
rtoes 0
lfemur 7.18749 -9.96155 -19.4264
ltibia 10.2618
lfoot -13.2432 21.237
ltoes -4.61278
591
root -0.0341439 18.825 4.15436 -3.70164 -4.77188 0.423293
lowerback 5.81344 1.77278 -1.09676
upperback -0.170237 2.22743 -1.7041
thorax -3.40838 1.11195 -1.33489
lowerneck -6.90587 -5.52958 -5.82716
upperneck 6.17632 -7.45676 7.84024
head 3.481 -3.51292 2.92271
rclavicle 4.14963e-015 -7.95139e-016
rhumerus 26.983 10.0893 -50.8777
rradius 127.261
rwrist 5.73212
rhand -41.8181 8.47135
rfingers 7.12502
rthumb -14.7199 -20.986
lclavicle 4.14963e-015 -7.95139e-016
lhumerus -34.8348 15.8362 69.5688
lradius 20.9046
lwrist -9.98673
lhand -24.2837 21.9675
lfingers 7.12502
lthumb 2.2034 51.9359
rfemur 0 0 0
rtibia 0
rfoot 0 0
rtoes 0
lfemur 7.17877 -9.95766 -19.3407
ltibia 10.263
lfoot -13.2324 21.2584
ltoes -4.55433
592
root -0.0347409 18.8251 4.1559 -3.70376 -4.77814 0.418912
lowerback 5.84255 1.76383 -1.07834
upperback -0.195975 2.21535 -1.71183
thorax -3.45051 1.10548 -1.35384
lowerneck -6.90492 -5.55538 -5.87097
upperneck 5.93149 -7.4754 7.87757
head 3.41156 -3.52457 2.94239
rclavicle -2.82274e-014 7.95139e-015
rhumerus 27.4467 9.81506 -50.7891
rradius 127.007
rwrist 6.30654
rhand -41.7946 9.68642
rfingers 7.12502
rthumb -14.6973 -19.7726
lclavicle -2.82274e-014 7.95139e-015
lhumerus -34.8783 15.8445 69.4955
lradius 20.8732
lwrist -10.0326
lhand -24.2812 22.1503
lfingers 7.12502
lthumb 2.20578 52.1186
rfemur 0 0 0
rtibia 0
rfoot 0 0
rtoes 0
lfemur 7.15785 -9.93086 -19.3327
ltibia 10.3072
lfoot -13.2061 21.2574
ltoes -4.64039
593
root -0.035777 18.824 4.15782 -3.73377 -4.79023 0.451214
lowerback 5.83006 1.75945 -1.10473
upperback -0.163106 2.20854 -1.71284
thorax -3.41056 1.10261 -1.33825
lowerneck -6.83424 -5.53841 -5.94468
upperneck 5.49795 -7.42734 7.94356
head 3.2716 -3.50652 2.98366
rclavicle -3.06874e-015 -5.56597e-015
rhumerus 27.9921 9.28459 -50.6338
rradius 126.71
rwrist 6.86609
rhand -41.8879 10.6347
rfingers 7.12502
rthumb -14.7871 -18.8178
lclavicle -3.06874e-015 -5.56597e-015
lhumerus -34.7988 15.8213 69.506
lradius 20.7955
lwrist -10.0333
lhand -24.3177 22.2716
lfingers 7.12502
lthumb 2.17051 52.2403
rfemur 0 0 0
rtibia 0
rfoot 0 0
rtoes 0
lfemur 7.17056 -9.94921 -19.3809
ltibia 10.3536
lfoot -13.2264 21.2817
ltoes -4.99843
594
root -0.0368361 18.8236 4.15912 -3.76895 -4.82409 0.377773
lowerback 5.87565 1.75662 -1.02323
upperback -0.175529 2.20958 -1.70134
thorax -3.44634 1.10174 -1.37405
lowerneck -6.80137 -5.48899 -5.89662
upperneck 5.15073 -7.34537 7.93831
head 3.15428 -3.46995 2.98414
rclavicle 2.18912e-014 1.35174e-014
rhumerus 28.5502 8.53793 -50.3808
rradius 126.437
rwrist 7.25585
rhand -42.176 10.5441
rfingers 7.12502
rthumb -15.0647 -18.8877
lclavicle 2.18912e-014 1.35174e-014
lhumerus -34.8025 15.6727 69.5144
lradius 20.7814
lwrist -9.94661
lhand -24.3475 22.1405
lfingers 7.12502
lthumb 2.14179 52.1095
rfemur 0 0 0
rtibia 0
rfoot 0 0
rtoes 0
lfemur 7.2273 -9.98458 -19.3139
ltibia 10.3695
lfoot -13.3314 21.2799
ltoes -5.01645
595
root -0.0389696 18.8238 4.15964 -3.7713 -4.83638 0.281838
lowerback 5.96519 1.74909 -0.923218
upperback -0.23929 2.20366 -1.69761
thorax -3.55903 1.09675 -1.43052
lowerneck -6.85071 -5.48656 -5.75841
upperneck 4.95578 -7.33205 7.81596
head 3.09313 -3.46636 2.92681
rclavicle -2.86623e-014 2.62396e-014
rhumerus 29.0291 7.97911 -50.235
rradius 126.128
rwrist 7.87534
rhand -42.4624 10.4188
rfingers 7.12502
rthumb -15.3406 -18.9922
lclavicle -2.86623e-014 2.62396e-014
lhumerus -34.8811 15.8153 69.3288
lradius 20.7182
lwrist -10.1661
lhand -24.3791 21.8829
lfingers 7.12502
lthumb 2.11121 51.8522
rfemur 0 0 0
rtibia 0
rfoot 0 0
rtoes 0
lfemur 7.23145 -10.0017 -19.2006
ltibia 10.393
lfoot -13.3697 21.3002
ltoes -4.67846
596
root -0.0408617 18.8237 4.16187 -3.74908 -4.8569 0.290597
lowerback 5.97248 1.75118 -0.924737
upperback -0.288652 2.20475 -1.7126
thorax -3.61368 1.09701 -1.44673
lowerneck -6.8964 -5.52792 -5.79904
upperneck 4.59206 -7.34862 7.55115
head 3.31482 -3.50453 3.17347
rclavicle -1.38652e-014 -7.95139e-016
rhumerus 29.4857 7.43443 -50.1951
rradius 125.782
rwrist 9.00857
rhand -43.5248 11.5551
rfingers 7.12502
rthumb -16.3637 -17.7746
lclavicle -1.38652e-014 -7.95139e-016
lhumerus -34.956 15.9532 69.1618
lradius 20.685
lwrist -10.2998
lhand -24.3582 21.7589
lfingers 7.12502
lthumb 2.1314 51.728
rfemur 0 0 0
rtibia 0
rfoot 0 0
rtoes 0
lfemur 7.1746 -10.0089 -19.2046
ltibia 10.4509
lfoot -13.3765 21.35
ltoes -4.52467
597
root -0.0422484 18.8251 4.16457 -3.7315 -4.86909 0.306162
lowerback 5.93037 1.75028 -0.927574
upperback -0.307553 2.20326 -1.73027
thorax -3.60902 1.09619 -1.46219
lowerneck -6.96724 -5.53166 -5.83045
upperneck 4.67367 -7.3695 7.89547
head 3.03599 -3.48393 2.96017
rclavicle 1.52691e-014 1.66979e-014
rhumerus 29.9544 6.8324 -50.1453
rradius 125.446
rwrist 10.2082
rhand -46.0503 13.7134
rfingers 7.12502
rthumb -18.794 -15.3986
lclavicle 1.52691e-014 1.66979e-014
lhumerus -34.9692 15.9136 69.1046
lradius 20.7088
lwrist -10.2392
lhand -24.2607 21.7334
lfingers 7.12502
lthumb 2.22559 51.7016
rfemur 0 0 0
rtibia 0
rfoot 0 0
rtoes 0
lfemur 7.13676 -9.98681 -19.2134
ltibia 10.4974
lfoot -13.4359 21.299
ltoes -4.52656
598
root -0.0438495 18.8258 4.16625 -3.70576 -4.8158 0.290068
lowerback 5.89195 1.7247 -0.904195
upperback -0.321466 2.17118 -1.73587
thorax -3.60127 1.0798 -1.47715
lowerneck -7.09115 -5.50566 -5.91908
upperneck 4.56184 -7.322 8.01307
head 3.02736 -3.45613 3.01079
rclavicle 9.01985e-015 -9.54166e-015
rhumerus 30.4257 6.40248 -50.0087
rradius 124.992
rwrist 10.9909
rhand -44.415 13.6206
rfingers 7.12502
rthumb -17.2207 -15.6364
lclavicle 9.01985e-015 -9.54166e-015
lhumerus -34.925 16.0664 68.9682
lradius 20.6418
lwrist -10.6135
lhand -24.4675 21.917
lfingers 7.12502
lthumb 2.02581 51.8871
rfemur 0 0 0
rtibia 0
rfoot 0 0
rtoes 0
lfemur 7.10002 -9.97432 -19.1725
ltibia 10.5292
lfoot -13.5083 21.1881
ltoes -4.41225
599
root -0.0452308 18.8236 4.16747 -3.69271 -4.7612 0.29563
lowerback 5.87943 1.69945 -0.902444
upperback -0.333739 2.13726 -1.74766
thorax -3.60701 1.06278 -1.48714
lowerneck -7.23022 -5.51464 -5.88619
upperneck 4.46558 -7.32123 7.96183
head 3.01795 -3.45491 2.98761
rclavicle 7.7526e-015 -9.54166e-015
rhumerus 30.8856 5.94306 -49.9516
rradius 124.645
rwrist 11.7401
rhand -44.6277 15.0498
rfingers 7.12502
rthumb -17.4254 -14.1891
lclavicle 7.7526e-015 -9.54166e-015
lhumerus -34.9073 16.2976 68.7861
lradius 20.5904
lwrist -11.2061
lhand -25.0256 22.2466
lfingers 7.12502
lthumb 1.48682 52.2212
rfemur 0 0 0
rtibia 0
rfoot 0 0
rtoes 0
lfemur 7.05564 -9.96964 -19.1612
ltibia 10.5746
lfoot -13.514 21.1353
ltoes -4.4031
600
root -0.0468221 18.8223 4.16786 -3.69814 -4.73891 0.256679
lowerback 5.8985 1.68754 -0.848106
upperback -0.347012 2.12418 -1.75971
thorax -3.62925 1.05508 -1.52986
lowerneck -7.27083 -5.557 -5.8709
upperneck 4.06841 -7.34263 7.67665
head 3.21603 -3.495 3.22358
rclavicle 2.82026e-015 -7.95139e-016
rhumerus 31.3362 5.35802 -50.0037
rradius 124.511
rwrist 12.4978
rhand -46.4984 15.1667
rfingers 7.12502
rthumb -19.225 -13.9031
lclavicle 2.82026e-015 -7.95139e-016
lhumerus -34.9233 16.3286 68.7001
lradius 20.6237
lwrist -11.3844
lhand -25.3919 21.6767
lfingers 7.12502
lthumb 1.13303 51.6535
rfemur 0 0 0
rtibia 0
rfoot 0 0
rtoes 0
lfemur 7.02343 -9.97833 -19.1142
ltibia 10.6269
lfoot -13.4508 21.154
ltoes -4.65899
